<?xml version="1.0" encoding="utf-8"?>
<!-- Generator: Adobe Illustrator 22.0.0, SVG Export Plug-In . SVG Version: 6.00 Build 0)  -->
<svg version="1.1" id="Capa_1" xmlns="http://www.w3.org/2000/svg" xmlns:xlink="http://www.w3.org/1999/xlink" x="0px" y="0px"
	 viewBox="0 0 72.9 95.3" style="enable-background:new 0 0 72.9 95.3;" xml:space="preserve">
<style type="text/css">
	.st0{fill:#F2F2F2;stroke:#000000;stroke-width:0.25;stroke-miterlimit:10;}
	.st1{stroke:#000000;stroke-width:0.25;stroke-miterlimit:10;}
	.st2{fill:#F0047F;stroke:#000000;stroke-width:0.25;stroke-miterlimit:10;}
	.st3{font-family:'MyriadPro-Regular';}
	.st4{font-size:5.5752px;}
	.st5{fill:#F2F2F2;}
	.st6{fill:#FFFFFF;stroke:#000000;stroke-width:0.25;stroke-miterlimit:10;}
</style>
<rect x="8.6" y="63.3" class="st0" width="54.8" height="20.2"/>
<path class="st1" d="M8.6,7h54.8c0,18.5,0,37,0,55.5c-18.3,0-36.6,0-54.8,0V7z"/>
<rect x="44.4" y="56.2" class="st2" width="11.8" height="13"/>
<text transform="matrix(1.2081 0 0 1 16.917 76.9771)" class="st3 st4">timer</text>
<circle class="st5" cx="50.9" cy="63.3" r="1.8"/>
<path class="st6" d="M41,52.6c-0.6-13.5-1.2-27-1.8-40.5c-2.4,14.2-5.4,24.4-7.8,31.3c-0.8,2.3-2.5,7.1-1.8,7.5
	c0.8,0.4,4.1-4.2,6.9-8.4"/>
</svg>
