<?xml version="1.0" encoding="utf-8"?>
<!-- Generator: Adobe Illustrator 22.0.0, SVG Export Plug-In . SVG Version: 6.00 Build 0)  -->
<svg version="1.1" id="Capa_1" xmlns="http://www.w3.org/2000/svg" xmlns:xlink="http://www.w3.org/1999/xlink" x="0px" y="0px"
	 viewBox="0 0 20.7 21.1" style="enable-background:new 0 0 20.7 21.1;" xml:space="preserve">
<style type="text/css">
	.st0{fill:#F2F2F2;stroke:#000000;stroke-width:0.25;stroke-miterlimit:10;}
</style>
<ellipse class="st0" cx="10.6" cy="15.5" rx="1.8" ry="1.5"/>
<path class="st0" d="M9.9,2.9c0,0.5,0,0.9-0.1,1.4C9.5,4.4,8.1,4.6,7.3,5.9C6.9,6.4,6.7,6.9,6.7,7.3c0,1.7,0,3.4,0,5.2l-1.4,1.9
	l10.9,0.3l-1.4-2.3c0-1.8,0.1-3.5,0.1-5.3c0-0.3-0.2-1.2-1.1-1.9c-0.8-0.7-1.7-0.8-1.9-0.8c0-0.5,0-0.9-0.1-1.4
	C11.1,2.9,10.5,2.9,9.9,2.9z"/>
</svg>
