<?xml version="1.0" encoding="utf-8"?>
<!-- Generator: Adobe Illustrator 22.0.0, SVG Export Plug-In . SVG Version: 6.00 Build 0)  -->
<svg version="1.1" id="Capa_1" xmlns="http://www.w3.org/2000/svg" xmlns:xlink="http://www.w3.org/1999/xlink" x="0px" y="0px"
	 viewBox="0 0 81.1 34.1" style="enable-background:new 0 0 81.1 34.1;" xml:space="preserve">
<style type="text/css">
	.st0{fill:#22A29B;}
	.st1{fill:#F2F2F2;stroke:#000000;stroke-width:0.25;stroke-miterlimit:10;}
	.st2{fill:#F2F2F2;}
	.st3{font-family:'MyriadPro-Regular';}
	.st4{font-size:6.0804px;}
</style>
<path class="st0" d="M10.9,5.2C10.6,5.3,4,8.2,3,15c-0.8,5.5,2.4,11.2,7.9,13.7c19,0,38,0,57,0c5.6-2.1,9.1-7.6,8.5-13.2
	c-0.5-4.7-3.8-8.9-8.5-10.6C48.9,4.9,29.9,5.1,10.9,5.2z"/>
<path class="st1" d="M24.8,15v-2.5l4.4,3.7l-4.4,3.8v-2c-0.5,0-1.4-0.1-2.4,0.3c-1.6,0.6-2.4,1.8-2.7,2.3c0-0.2-0.4-2.4,1.3-4.2
	C22.4,14.9,24.5,15,24.8,15z"/>
<text transform="matrix(1.3572 0 0 1 31.584 19.0895)" class="st2 st3 st4">SHARE</text>
</svg>
