<?xml version="1.0" encoding="utf-8"?>
<!-- Generator: Adobe Illustrator 22.0.0, SVG Export Plug-In . SVG Version: 6.00 Build 0)  -->
<svg version="1.1" id="Capa_1" xmlns="http://www.w3.org/2000/svg" xmlns:xlink="http://www.w3.org/1999/xlink" x="0px" y="0px"
	 viewBox="0 0 77.8 58.2" style="enable-background:new 0 0 77.8 58.2;" xml:space="preserve">
<style type="text/css">
	.st0{fill:#F2F2F2;}
</style>
<g>
	<path class="st0" d="M28.2,37.8c0,0.8,0.1,1.3,0.4,1.6c0.3,0.2,0.8,0.4,1.6,0.4h0.7v3.6H16.8v-3.6h0.9c0.8,0,1.4-0.1,1.6-0.4
		c0.3-0.2,0.4-0.8,0.4-1.6v-8.4c0-0.8-0.1-1.3-0.4-1.6c-0.3-0.2-0.8-0.4-1.6-0.4h-0.9v-3.7h11.4V37.8z M19.5,18.6
		c0-1,0.4-1.9,1.1-2.7c0.8-0.7,1.7-1.1,2.7-1.1c1.1,0,2,0.4,2.8,1.1c0.8,0.7,1.1,1.6,1.1,2.7c0,1-0.4,1.9-1.1,2.6s-1.7,1.1-2.8,1.1
		c-1.1,0-2-0.4-2.8-1.1C19.8,20.5,19.5,19.7,19.5,18.6z"/>
	<path class="st0" d="M58.2,37.8c0,0.8,0.1,1.3,0.4,1.6s0.8,0.4,1.6,0.4H61v3.6H47.4v-3.6h0.5c0.7,0,1.2-0.1,1.5-0.4
		c0.2-0.2,0.4-0.8,0.4-1.6v-7c0-1.1-0.2-2-0.7-2.5s-1.2-0.8-2.1-0.8c-1,0-1.8,0.4-2.3,1.1c-0.6,0.7-0.9,1.7-0.9,2.9v6.4
		c0,0.8,0.1,1.3,0.4,1.6s0.8,0.4,1.5,0.4H46v3.6H32.2v-3.6h1c0.8,0,1.4-0.1,1.6-0.4c0.3-0.2,0.4-0.8,0.4-1.6v-8.4
		c0-0.8-0.1-1.3-0.4-1.6c-0.3-0.2-0.8-0.4-1.6-0.4h-1v-3.7h11.3v3c0.9-1.2,2-2.1,3.3-2.7c1.3-0.6,2.7-0.9,4.3-0.9
		c2.6,0,4.4,0.5,5.5,1.6s1.6,2.9,1.6,5.6V37.8z"/>
</g>
</svg>
